# xmcd
#
# Track frame offsets: 
#        150
#        38905
#        49275
#        72048
#        85638
#        104250
#        117037
#        130696
#        143352
#        157763
#        170536
#        185376
#        204685
#        216271
#        235785
#
# Disc length: 3590 seconds
#
# Revision: 4
# Processed by: cddbd v1.5.2PL0 Copyright (c) Steve Scherf et al.
# Submitted via: ExactAudioCopy v0.99pb4
#
DISCID=c10e040f
DTITLE=Various Artist - Blues Power (Stereo&Video,#04'2002)
DYEAR=2002
DGENRE=Blues
TTITLE0=B.B. King - Why I Sing The Blues
TTITLE1=Buddy Guy - First Time I Met The Blues
TTITLE2=Eric Clapton - Bell Bottom Blues
TTITLE3=Jonh Lee Hooker - One Bourbon, One Scotch, One Beer
TTITLE4=Robert Cray - Smoking Gun
TTITLE5=Howlin' Wolf - Killing Floor
TTITLE6=Koko Taylor - Wang Dang Doodle
TTITLE7=Little Walter - I Got To Find My Baby
TTITLE8=Otis Rush - So Many Roads
TTITLE9=Bo Diddley - Pretty Thing
TTITLE10=Buddy Guy - My Time After Awhile
TTITLE11=Etta James - Baby, What You Want Me To Do (live)
TTITLE12=Sonny Boy Williamson - Don't Start Me To Talkin'
TTITLE13=The Allman Brothers Band - Wasted Words
TTITLE14=Eric Clapton - Blues Power
EXTD=YEAR: 2002 ID3G: 0\nS&V 048
EXTT0=
EXTT1=
EXTT2=
EXTT3=
EXTT4=
EXTT5=
EXTT6=
EXTT7=
EXTT8=
EXTT9=
EXTT10=
EXTT11=
EXTT12=
EXTT13=
EXTT14=
PLAYORDER=
